<?xml version="1.0" standalone="no"?>
<!DOCTYPE svg PUBLIC "-//W3C//DTD SVG 20010904//EN"
 "http://www.w3.org/TR/2001/REC-SVG-20010904/DTD/svg10.dtd">
<svg version="1.0" xmlns="http://www.w3.org/2000/svg"
 width="1000.000000pt" height="1000.000000pt" viewBox="0 0 1000.000000 1000.000000"
 preserveAspectRatio="xMidYMid meet">
<metadata>
Created by potrace 1.14, written by Peter Selinger 2001-2017
</metadata>
<g transform="translate(0.000000,1000.000000) scale(0.100000,-0.100000)"
fill="#000000" stroke="none">
<path d="M997 6183 c-3 -5 -17 -78 -32 -163 -14 -85 -40 -227 -55 -315 -106
-590 -171 -969 -166 -981 5 -12 624 -14 4123 -14 2265 0 4123 4 4129 8 9 6
264 1411 264 1456 0 15 -390 16 -4129 16 -2272 0 -4132 -3 -4134 -7z m1848
-572 c66 -60 121 -108 123 -106 1 1 13 60 25 131 l23 129 92 3 c58 2 92 -1 92
-8 0 -15 -109 -632 -112 -636 -2 -1 -73 60 -158 137 -85 76 -157 135 -160 131
-4 -4 -14 -56 -24 -117 -28 -173 -14 -155 -118 -155 l-91 0 7 53 c7 52 92 542
101 585 l6 23 37 -30 c20 -17 91 -80 157 -140z m-494 144 c131 -45 201 -187
164 -330 -68 -258 -376 -391 -554 -238 -106 90 -121 257 -36 393 28 45 112
123 156 146 87 45 190 56 270 29z m1410 -72 c-8 -49 -16 -90 -19 -93 -2 -3
-74 -7 -160 -10 l-157 -5 -3 -27 -3 -28 119 0 119 0 -9 -52 c-18 -109 -3 -98
-138 -98 -66 0 -120 -3 -120 -7 0 -5 -3 -18 -6 -30 l-6 -23 156 0 c122 0 156
-3 156 -13 0 -14 -16 -114 -25 -154 l-5 -23 -251 0 -251 0 6 28 c4 15 29 155
56 312 28 157 52 291 55 298 3 9 63 12 253 12 l248 0 -15 -87z m574 18 c19
-38 39 -72 44 -75 5 -4 38 27 73 69 l63 74 113 1 113 0 -66 -77 c-159 -185
-205 -241 -205 -247 0 -4 31 -69 69 -144 100 -201 103 -182 -26 -182 l-109 0
-40 81 -40 81 -69 -81 -68 -81 -109 0 c-59 0 -108 2 -108 5 0 5 189 230 253
302 l19 22 -81 155 c-44 85 -81 158 -81 161 0 3 49 5 110 5 l110 0 35 -69z
m1205 67 c0 -13 -30 -170 -34 -176 -2 -4 -37 -9 -77 -10 -40 -2 -75 -5 -77 -6
-3 -4 -82 -434 -82 -449 0 -4 -42 -6 -92 -5 -76 2 -93 6 -91 18 1 8 18 106 38
218 19 112 35 207 35 212 0 6 -34 10 -76 10 l-76 0 7 48 c4 26 11 68 17 95
l10 47 249 0 c137 0 249 -1 249 -2z m255 -20 c-8 -39 -35 -190 -35 -199 0 -11
147 -12 154 -1 2 4 12 56 22 115 l17 107 94 0 95 0 -6 -27 c-3 -16 -28 -156
-56 -313 -28 -157 -52 -291 -55 -297 -3 -9 -32 -13 -95 -13 -49 0 -90 1 -90 3
0 2 9 52 20 111 11 60 18 111 16 115 -2 3 -38 5 -79 3 l-74 -3 -19 -112 -19
-112 -92 -3 c-51 -1 -93 1 -93 5 0 5 25 148 55 318 30 171 55 313 55 318 0 4
43 7 95 7 94 0 95 0 90 -22z m779 10 c51 -16 119 -82 136 -133 28 -84 -2 -201
-72 -281 l-32 -36 31 -94 31 -94 -103 0 -104 0 -17 55 -18 55 -62 0 -63 0 -6
-37 c-13 -77 -8 -73 -106 -73 -103 0 -97 -8 -75 110 8 41 29 156 46 255 17 99
35 204 41 233 l10 52 161 0 c98 0 177 -5 202 -12z m766 -80 l-16 -93 -159 -5
-160 -5 -3 -27 -3 -28 121 0 c111 0 121 -2 116 -17 -3 -10 -8 -36 -11 -58 -13
-80 -4 -75 -135 -75 -98 0 -119 -3 -124 -16 -17 -43 -13 -44 149 -44 182 0
168 18 129 -167 l-4 -23 -251 0 -251 0 5 23 c6 24 40 213 84 470 l27 157 251
0 251 0 -16 -92z m570 0 l-16 -93 -149 -3 c-83 -1 -156 -5 -162 -7 -7 -2 -13
-16 -13 -30 l0 -25 121 0 c110 0 120 -2 115 -17 -3 -10 -8 -36 -11 -58 -13
-80 -3 -75 -136 -75 -65 0 -119 -3 -119 -7 0 -5 -3 -18 -6 -30 l-6 -23 156 0
c184 0 169 18 130 -167 l-4 -23 -251 0 -251 0 6 23 c3 12 29 158 58 325 l52
302 251 0 251 0 -16 -92z m190 -375 c0 -5 -7 -46 -15 -93 -8 -47 -15 -86 -15
-87 0 -2 -40 -3 -90 -3 -87 0 -90 1 -90 23 0 24 18 132 25 155 5 13 185 18
185 5z"/>
<path d="M2169 5573 c-90 -37 -133 -130 -97 -208 40 -88 198 -64 247 38 12 24
21 53 21 66 0 26 -23 72 -45 91 -26 22 -90 28 -126 13z"/>
<path d="M6365 5580 c-5 -8 -25 -122 -25 -142 0 -16 9 -18 66 -18 59 0 68 3
95 29 34 35 40 88 12 114 -17 14 -141 29 -148 17z"/>
<path d="M3542 4479 c-110 -21 -167 -101 -127 -178 13 -27 45 -44 173 -92 23
-8 30 -15 23 -22 -13 -13 -130 7 -172 29 -15 7 -30 14 -33 14 -6 0 -66 -98
-66 -108 0 -18 117 -56 182 -60 106 -7 192 33 226 104 15 33 15 37 -2 68 -20
37 -64 65 -143 91 -81 26 -79 39 5 32 39 -4 82 -11 96 -17 24 -9 27 -6 45 36
32 72 31 76 -19 89 -68 18 -140 23 -188 14z"/>
<path d="M3827 4483 c-3 -4 -8 -34 -12 -65 l-7 -58 52 0 c44 0 51 -2 46 -17
-5 -19 -34 -180 -43 -245 l-6 -38 60 0 59 0 23 123 c12 67 24 134 27 149 5 25
10 27 57 30 l51 3 12 58 c6 31 8 59 5 61 -12 8 -320 6 -324 -1z"/>
<path d="M4205 4480 c-2 -3 -14 -63 -26 -132 -26 -151 -22 -185 30 -241 34
-36 44 -41 95 -45 76 -6 133 17 185 74 51 54 57 71 82 203 29 158 30 153 -38
149 l-58 -3 -18 -100 c-31 -166 -34 -174 -71 -192 -45 -21 -84 -11 -92 24 -4
15 0 75 9 133 24 150 27 141 -38 139 -31 -1 -58 -5 -60 -9z"/>
<path d="M4644 4478 c-3 -4 -14 -59 -25 -121 -11 -61 -26 -147 -34 -191 -22
-115 -29 -106 85 -106 146 0 223 40 274 142 65 130 6 262 -127 282 -58 9 -166
5 -173 -6z m185 -144 c25 -32 26 -55 6 -94 -17 -34 -62 -60 -100 -60 -20 0
-25 4 -21 18 2 9 10 50 16 90 l12 72 33 0 c24 0 39 -7 54 -26z"/>
<path d="M5055 4481 c-3 -5 -75 -404 -75 -416 0 -3 27 -5 59 -5 48 0 61 3 65
18 4 14 63 348 69 392 2 12 -10 15 -56 16 -32 0 -60 -2 -62 -5z"/>
<path d="M5378 4476 c-49 -13 -63 -21 -116 -70 -89 -81 -104 -205 -35 -287
103 -122 329 -45 379 129 44 151 -74 269 -228 228z m92 -136 c33 -33 27 -85
-14 -126 -60 -60 -146 -34 -146 44 0 77 109 133 160 82z"/>
<path d="M6027 4476 c-186 -50 -264 -281 -129 -384 50 -38 143 -43 208 -12
204 99 207 370 4 403 -19 3 -57 0 -83 -7z m92 -142 c25 -32 26 -55 6 -94 -31
-59 -109 -77 -150 -35 -29 28 -31 54 -10 95 33 64 116 82 154 34z"/>
<path d="M6347 4483 c-3 -4 -8 -26 -12 -48 -4 -22 -9 -48 -12 -57 -4 -16 5
-18 97 -18 91 0 101 -2 98 -17 -3 -15 -16 -18 -81 -21 -52 -2 -77 -7 -77 -15
0 -7 -3 -29 -6 -49 l-7 -38 77 0 c68 0 77 -2 74 -17 -3 -16 -17 -18 -105 -21
l-102 -3 -5 -29 c-3 -17 -9 -43 -12 -60 l-6 -30 125 0 c112 0 127 2 157 23 58
39 86 119 59 169 -9 16 -7 24 12 44 14 15 23 40 27 72 4 44 1 53 -26 83 l-30
34 -120 4 c-66 1 -122 -1 -125 -6z"/>
<path d="M5640 4166 c0 -7 -3 -34 -6 -60 l-7 -46 61 0 60 0 7 46 c3 26 9 53
12 60 4 11 -9 14 -61 14 -49 0 -66 -4 -66 -14z"/>
</g>
</svg>
